<?xml version="1.0" encoding="UTF-8"?><svg id="Logo_Artwork" xmlns="http://www.w3.org/2000/svg" viewBox="0 0 288 288"><defs><style>.cls-1{fill:#000;}.cls-1,.cls-2{stroke-width:0px;}.cls-2{fill:#fff;}</style></defs><circle class="cls-1" cx="147.06" cy="141.93" r="131.63"/><path class="cls-2" d="M42.05,113.27c-.08.32.05.51.34.58l22.11,5.79c.29.07.5-.02.58-.34l.78-2.99c.08-.29-.05-.51-.34-.58l-22.11-5.79c-.29-.07-.51.05-.58.34l-.78,2.99Z"/><path class="cls-2" d="M45.32,102.1c-.12.27-.02.51.25.62l2.74,1.16c.27.12.51.02.62-.25l1.35-3.18,17.86,7.58c.3.13.51.02.62-.25l1.21-2.85c.13-.3.05-.5-.25-.62l-17.86-7.58,1.35-3.18c.13-.3.02-.51-.25-.62l-2.74-1.16c-.27-.12-.5-.05-.62.25l-4.28,10.08Z"/><path class="cls-2" d="M56.35,86.7c.33.2.62.13.82-.2l.39-.64,1.62,2.38c.13.18.31.18.43-.02l.69-1.14c.09-.15.09-.26,0-.41l-1.25-2.64c-.13-.25-.27-.41-.53-.56l-2.49-1.52c-.33-.2-.62-.13-.82.2l-1.41,2.31c-.2.33-.13.62.2.82l2.34,1.42Z"/><path class="cls-2" d="M62.84,71.46c-1.78,2.12-1.61,4.24.54,6.04l5.39,4.51c.43.36.88.39,1.36.09l6.31-3.92,3.03,2.54c.62.52.65,1.08.15,1.68l-.92,1.1c-.48.57-1.06.66-1.68.15l-1.76-1.47c-.25-.21-.46-.19-.67.06l-1.99,2.37c-.19.23-.19.46.06.67l2.4,2.01c2.15,1.8,4.26,1.59,6.04-.54l2.14-2.56c1.8-2.14,1.61-4.24-.54-6.04l-5.27-4.41c-.43-.36-.86-.37-1.34-.11l-6.32,3.94-3.15-2.63c-.59-.5-.63-1.11-.15-1.68l.92-1.1c.52-.62,1.08-.64,1.68-.15l1.78,1.49c.23.19.48.17.67-.06l1.99-2.37c.21-.25.17-.48-.06-.67l-2.42-2.03c-2.14-1.79-4.24-1.61-6.04.54l-2.14,2.56Z"/><path class="cls-2" d="M108.35,64.3c.3-.19.31-.4.09-.65l-16.22-16.88c-.21-.22-.42-.23-.65-.09l-3.52,2.17c-.23.14-.32.34-.21.62l7.82,22.07c.1.33.32.4.59.23l2.71-1.67c.23-.14.28-.35.19-.6l-1.6-4.12,4.51-2.78,2.99,3.26c.19.2.4.25.62.11l2.69-1.66ZM99.6,60.05l-3.24,2-3.83-9.84,7.07,7.84Z"/><path class="cls-2" d="M114.65,57.52l6.66-2.41c.31-.11.51,0,.61.29l1.02,2.8c.11.31.02.5-.29.61l-10.02,3.63c-.28.1-.5.02-.61-.29l-7.79-21.49c-.1-.28,0-.51.29-.61l2.91-1.06c.31-.11.51,0,.61.29l6.61,18.24Z"/><path class="cls-2" d="M140.12,31.79c-.35.04-.57.28-.56.63l.39,13.98-.15.02-4.5-13.53c-.13-.35-.36-.5-.71-.46l-1.77.21c-.35.04-.54.24-.59.61l-1.32,14.2-.15.02-2.76-13.7c-.07-.35-.33-.53-.69-.49l-2.81.33c-.38.04-.56.3-.49.69l5.02,22.19c.07.38.3.53.69.49l2.96-.34c.35-.04.54-.24.59-.58l1.55-13.75,4.62,13.01c.13.34.36.5.71.46l2.9-.34c.38-.04.57-.25.56-.63l-.06-22.76c-.02-.39-.25-.6-.63-.56l-2.81.33Z"/><path class="cls-2" d="M164.08,57.29c.35.05.5-.11.48-.45l-1.88-23.34c-.02-.3-.18-.44-.45-.48l-4.1-.55c-.27-.04-.46.06-.56.35l-7.92,22.03c-.13.31,0,.51.32.55l3.16.42c.26.04.43-.09.53-.35l1.37-4.2,5.25.7.25,4.42c.02.27.15.44.42.48l3.13.42ZM160,48.46l-3.78-.5,3.26-10.04.52,10.55Z"/><path class="cls-2" d="M186.16,39.54c-.34-.12-.58-.05-.8.22l-6.03,6.9-.24-9.17c0-.35-.15-.56-.48-.68l-2.8-1.01c-.42-.15-.71.03-.68.48l.63,14.31-3.15,8.73c-.13.36,0,.63.36.76l2.69.97c.36.13.63,0,.76-.36l3.15-8.73,9.62-10.61c.31-.33.2-.65-.22-.8l-2.8-1.01Z"/><path class="cls-2" d="M200.27,46.55c-2.36-1.44-4.43-.96-5.89,1.43l-3.65,6c-.29.48-.25.93.11,1.36l4.82,5.65-2.06,3.38c-.42.69-.97.8-1.64.4l-1.22-.74c-.64-.39-.82-.95-.4-1.64l1.19-1.96c.17-.28.12-.48-.16-.66l-2.65-1.61c-.25-.15-.48-.12-.65.16l-1.62,2.67c-1.45,2.39-.93,4.45,1.43,5.89l2.85,1.73c2.39,1.45,4.43.96,5.89-1.43l3.57-5.87c.29-.48.24-.9-.09-1.34l-4.84-5.66,2.13-3.51c.4-.66,1-.79,1.64-.4l1.22.74c.69.42.8.97.4,1.64l-1.21,1.98c-.15.26-.09.5.16.66l2.65,1.61c.28.17.5.09.65-.16l1.64-2.7c1.45-2.39.96-4.43-1.43-5.89l-2.85-1.73Z"/><path class="cls-2" d="M233.63,76.97c-.22-.28-.53-.33-.83-.13l-11.63,7.76-.09-.12,9.07-11c.22-.29.23-.57,0-.85l-1.12-1.39c-.22-.28-.49-.33-.83-.18l-12.73,6.43-.09-.12,10.14-9.62c.26-.25.27-.56.05-.84l-1.77-2.21c-.24-.3-.56-.32-.84-.05l-16.12,16.05c-.28.27-.29.54-.05.84l1.86,2.32c.22.28.49.33.8.19l12.47-5.99-8.56,10.83c-.22.29-.23.57,0,.84l1.82,2.28c.24.3.51.35.83.13l19.25-12.15c.32-.22.38-.53.13-.83l-1.77-2.21Z"/><path class="cls-2" d="M244.96,98.71c.27-.13.38-.31.23-.63l-4.68-9.9c-.11-.24-.35-.33-.62-.2l-20.66,9.77c-.27.13-.35.36-.24.61l4.68,9.9c.15.32.37.35.63.23l2.69-1.27c.3-.14.38-.31.23-.63l-3.18-6.73,5.44-2.57,2.43,5.14c.13.27.37.35.66.21l2.66-1.26c.3-.14.38-.38.25-.65l-2.43-5.14,5.38-2.54,3.18,6.72c.15.32.39.34.66.22l2.69-1.27Z"/><path class="cls-2" d="M248.29,106.6c-.07-.29-.29-.42-.58-.34l-2.88.75c-.29.07-.42.29-.34.58l.87,3.34-18.78,4.9c-.32.08-.42.29-.34.58l.78,3c.08.32.26.42.58.34l18.78-4.89.87,3.34c.08.32.29.42.58.34l2.88-.75c.29-.07.42-.26.34-.58l-2.76-10.6Z"/><path class="cls-2" d="M81.78,193.67c-.22-.28-.48-.29-.73-.09l-19.69,15.54c-.26.2-.31.45-.09.73l2.1,2.67c.2.26.48.29.73.09l19.69-15.54c.26-.2.29-.48.09-.73l-2.1-2.67Z"/><path class="cls-2" d="M94.61,207.2c-.27-.24-.52-.2-.74.04l-9.23,10.24-.15-.13,5.61-13.63c.13-.28.07-.51-.15-.71l-2.4-2.16c-.24-.22-.52-.2-.74.04l-16.8,18.63c-.22.24-.2.52.04.74l2.52,2.27c.27.24.52.2.74-.04l9.27-10.28.12.11-5.63,13.7c-.13.28-.07.51.15.71l2.4,2.17c.24.22.52.2.74-.04l16.8-18.63c.22-.24.2-.52-.04-.74l-2.52-2.27Z"/><path class="cls-2" d="M114.06,219.28c-2.8-1.17-4.97-.31-6.15,2.53l-2.97,7.11c-.24.57-.12,1.05.35,1.46l6.16,5.33-1.67,4.01c-.34.81-.93,1.03-1.71.7l-1.45-.6c-.75-.31-1.04-.9-.7-1.71l.97-2.32c.14-.33.05-.55-.28-.68l-3.13-1.31c-.3-.13-.55-.05-.68.28l-1.32,3.16c-1.18,2.83-.28,4.98,2.53,6.15l3.38,1.41c2.83,1.18,4.97.31,6.15-2.53l2.91-6.96c.24-.57.11-1.02-.32-1.44l-6.19-5.35,1.74-4.16c.33-.79.96-1.02,1.71-.7l1.45.6c.81.34,1.03.93.7,1.71l-.98,2.35c-.13.3-.02.56.28.68l3.13,1.31c.33.14.56.02.68-.28l1.33-3.19c1.18-2.83.31-4.97-2.53-6.15l-3.38-1.41Z"/><path class="cls-2" d="M138.53,226.65c.06-.32-.03-.54-.42-.61l-11.81-2.23c-.29-.05-.52.1-.58.42l-4.66,24.65c-.06.32.1.55.38.6l11.81,2.23c.38.07.55-.09.61-.42l.61-3.21c.07-.35-.03-.54-.42-.61l-8.02-1.52,1.23-6.48,6.13,1.16c.32.06.55-.1.62-.45l.6-3.18c.07-.35-.09-.58-.41-.64l-6.13-1.16,1.21-6.42,8.02,1.52c.38.07.56-.13.62-.45l.61-3.21Z"/><path class="cls-2" d="M159.34,252.13c.39-.01.51-.21.44-.57l-6.35-24.9c-.08-.32-.28-.45-.57-.44l-4.54.17c-.29.01-.48.15-.54.48l-4.49,25.3c-.09.36.09.55.44.54l3.49-.13c.29-.01.45-.18.5-.48l.71-4.8,5.81-.22,1.09,4.73c.08.29.24.45.54.44l3.46-.13ZM153.29,243.33l-4.18.15,1.67-11.47,2.51,11.31Z"/><path class="cls-2" d="M162.42,225.22c-.32.08-.46.32-.37.64l.82,3.16c.08.32.32.46.64.37l3.67-.95,5.35,20.61c.09.35.32.46.64.37l3.29-.85c.35-.09.46-.29.37-.64l-5.35-20.61,3.67-.95c.35-.09.46-.32.37-.64l-.82-3.16c-.08-.32-.29-.46-.64-.37l-11.63,3.02Z"/><path class="cls-2" d="M180.87,219.6c-.29.14-.38.4-.24.7l1.42,2.94c.14.29.4.39.7.24l3.41-1.65,9.26,19.18c.16.32.4.38.7.24l3.06-1.48c.32-.16.4-.37.24-.7l-9.26-19.18,3.41-1.65c.32-.16.38-.4.24-.7l-1.42-2.94c-.14-.29-.37-.4-.7-.24l-10.83,5.22Z"/><path class="cls-2" d="M212.95,225.99l5.91-4.71c.27-.22.51-.16.7.1l1.89,2.6c.21.29.18.51-.09.73l-8.88,7.08c-.25.2-.49.19-.7-.1l-14.5-19.96c-.19-.26-.15-.53.09-.73l2.58-2.06c.27-.22.51-.16.7.1l12.31,16.95Z"/><path class="cls-2" d="M216.21,193.31c-.24-.21-.47-.24-.73.05l-7.74,8.95c-.19.22-.17.49.07.7l18.67,16.15c.24.21.51.19.7-.03l7.74-8.95c.25-.29.19-.52-.05-.73l-2.43-2.1c-.27-.23-.47-.24-.72.05l-5.26,6.08-4.91-4.25,4.02-4.64c.21-.24.19-.51-.08-.75l-2.41-2.08c-.27-.23-.54-.21-.75.03l-4.02,4.64-4.86-4.21,5.26-6.08c.25-.29.17-.54-.08-.75l-2.43-2.1Z"/><path class="cls-2" d="M153.01,93.48c-4.41,0-8,3.59-8,7.99v10.88c0,.56.22,1.06.58,1.43v46.72h2.92v-46.72c.36-.37.58-.87.58-1.43v-10.88c0-2.15,1.75-3.9,3.91-3.9s3.9,1.75,3.9,3.9v2.46c0,1.13.92,2.05,2.04,2.05s2.05-.92,2.05-2.05v-2.46c0-4.41-3.59-7.99-7.99-7.99Z"/><path class="cls-2" d="M147.06,187.35c21.16,0,38.74-15.3,42.3-35.43-.8,2.12-4.22,3.72-8.32,3.72-4.69,0-8.49-2.09-8.49-4.67,0,20.11-11.4,36.39-25.48,36.39"/><path class="cls-2" d="M147.06,187.35c-14.09,0-25.48-16.28-25.48-36.39,0,2.58-3.8,4.67-8.49,4.67-4.1,0-7.52-1.6-8.32-3.72,3.56,20.14,21.14,35.43,42.3,35.43"/><path class="cls-2" d="M155.55,150.96c0,2.58-3.8,4.67-8.49,4.67s-8.49-2.09-8.49-4.67c0,19.12,3.43,34.78,7.81,36.27h-1.42v1.39c0,.97.79,1.76,1.76,1.76h.68c.97,0,1.76-.79,1.76-1.76v-1.39h-1.42c4.37-1.49,7.81-17.15,7.81-36.27Z"/><path class="cls-2" d="M54.56,160.69c-.05-.3-.11-.59-.19-.87-.29-1.1-.79-2.13-1.4-3.1-.64-1.01-1.39-1.95-2.09-2.93l-.57-.99c-.39-.73-.71-1.5-.96-2.29-.23-.72-.38-1.48-.47-2.24-.02-.12-.02-.31-.08-.42-.04-.01-.04-.01-.08,0-.06.11-.07.24-.08.37l-.1.59-.15.71c-.21.85-.49,1.68-.86,2.48-.34.73-.74,1.45-1.2,2.12l-1.01,1.37c-.41.55-.82,1.09-1.17,1.68-.6,1-1.05,2.12-1.26,3.26-.2,1.08-.17,2.14.14,3.2l.11.38.3.7c.36.7.84,1.33,1.43,1.84.1.09.22.21.34.26.53.45,1.19.81,1.88,1.03.53.18,1.09.27,1.63.28,1.5,0,2.97-.64,4.03-1.69,1.03-1.02,1.69-2.38,1.85-3.83.04-.36.04-.71.04-1.07h0c0-.28-.03-.57-.07-.85ZM46.5,159.46c.15.91.46,2.04-.2,2.82-.15.17-.33.32-.54.41-.19.08-.38.11-.59.08h-.03c-.26-.04-.49-.21-.64-.42-.2-.27-.37-.6-.41-1.16-.03-.46.13-.97.27-1.41.32-1.04.94-1.9,1.59-2.75l.78-.99.22-.3c-.37.85-.56,1.79-.54,2.72,0,.33.04.66.1.98Z"/><path class="cls-2" d="M252.02,158.24c-.21-1.15-.65-2.27-1.26-3.26-.35-.58-.76-1.13-1.17-1.68l-1.01-1.37c-.46-.67-.86-1.39-1.2-2.12-.37-.8-.64-1.63-.86-2.48l-.15-.71-.1-.59c-.02-.12-.02-.26-.08-.36t-.08,0c-.06.11-.07.29-.08.42-.09.75-.24,1.51-.47,2.24-.25.79-.57,1.56-.96,2.29l-.57.99c-.7.97-1.45,1.91-2.09,2.93-.61.96-1.11,1.99-1.4,3.09-.07.28-.14.58-.19.87-.05.28-.07.57-.07.85h0c0,.36,0,.71.04,1.07.16,1.44.82,2.81,1.85,3.83,1.06,1.05,2.53,1.69,4.03,1.69.54,0,1.1-.1,1.63-.27.69-.23,1.35-.58,1.88-1.03.12-.05.24-.17.34-.26.6-.51,1.08-1.14,1.43-1.84l.3-.7.11-.38c.3-1.06.33-2.12.14-3.2ZM250.83,159c-.04.55-.21.88-.41,1.16-.15.21-.38.37-.64.41h-.03c-.2.03-.4,0-.59-.08-.21-.09-.4-.24-.54-.41-.67-.79-.36-1.91-.2-2.82.05-.33.09-.65.1-.98.02-.93-.17-1.87-.54-2.72l.22.3h0l.78.99c.65.85,1.27,1.71,1.59,2.75.14.44.3.95.27,1.41Z"/><path class="cls-2" d="M260.53,93.99c-6.2-14.67-15.08-27.84-26.39-39.15-11.31-11.31-24.48-20.19-39.15-26.39-15.18-6.42-31.31-9.68-47.94-9.68s-32.75,3.26-47.94,9.68c-14.67,6.2-27.84,15.08-39.15,26.39-11.31,11.31-20.19,24.48-26.39,39.15-6.42,15.18-9.68,31.31-9.68,47.94s3.26,32.75,9.68,47.94c6.2,14.67,15.08,27.84,26.39,39.15,11.31,11.31,24.48,20.19,39.15,26.39,15.19,6.42,31.31,9.68,47.94,9.68s32.75-3.26,47.94-9.68c14.67-6.2,27.84-15.08,39.15-26.39,11.31-11.31,20.19-24.48,26.39-39.15,6.42-15.18,9.68-31.31,9.68-47.94s-3.26-32.75-9.68-47.94ZM38.17,95.93c5.95-14.07,14.47-26.71,25.33-37.56,10.85-10.85,23.49-19.37,37.56-25.33,14.57-6.16,30.04-9.29,46-9.29s31.43,3.12,46,9.29c14.07,5.95,26.71,14.47,37.56,25.33,10.85,10.85,19.37,23.49,25.33,37.56,4.2,9.94,6.99,20.29,8.34,30.94l-40.31,9.67c-1.27-18.57-9.11-35.85-22.4-49.13-14.56-14.56-33.93-22.58-54.52-22.58s-39.96,8.02-54.52,22.58c-13.56,13.56-21.44,31.28-22.47,50.28l-40.36-9.78c1.3-11.01,4.13-21.72,8.46-31.97ZM198.47,193.34c-13.73,13.73-31.99,21.3-51.41,21.3s-37.68-7.56-51.41-21.3c-13.73-13.73-21.3-31.99-21.3-51.41s7.56-37.68,21.3-51.41,31.99-21.3,51.41-21.3,37.68,7.56,51.41,21.3c13.73,13.73,21.3,31.99,21.3,51.41s-7.56,37.68-21.3,51.41ZM28.89,141.93c0-3.12.12-6.23.36-9.31l40.71,9.87c.06,8.79,1.58,17.34,4.45,25.39l-36.93,18.36c-5.7-14.07-8.59-28.97-8.59-44.31ZM230.62,225.49c-10.85,10.85-23.49,19.37-37.56,25.33-14.57,6.16-30.04,9.29-46,9.29s-31.43-3.12-46-9.29c-14.07-5.95-26.71-14.47-37.56-25.33-10.17-10.17-18.3-21.91-24.18-34.93l36.81-18.29c3.82,8.92,9.34,17.12,16.41,24.19,14.56,14.56,33.93,22.58,54.52,22.58s39.96-8.02,54.52-22.58c7.4-7.4,13.1-16.03,16.93-25.44l37.38,17.03c-5.95,14.03-14.45,26.63-25.28,37.45ZM257.64,183.68l-37.5-17.08c2.64-7.85,4.02-16.15,4.02-24.67,0-.2,0-.41,0-.61l40.63-9.74c.3,3.43.44,6.88.44,10.35,0,14.41-2.55,28.44-7.59,41.75Z"/><path class="cls-1" d="M147.06,265.53c-16.68,0-32.87-3.27-48.11-9.71-14.72-6.23-27.94-15.14-39.29-26.49-11.35-11.35-20.26-24.57-26.49-39.29-6.45-15.24-9.71-31.43-9.71-48.11s3.27-32.87,9.71-48.11c6.22-14.72,15.14-27.94,26.49-39.29,11.35-11.35,24.57-20.26,39.29-26.49,15.24-6.45,31.43-9.71,48.11-9.71s32.87,3.27,48.11,9.71c14.72,6.23,27.94,15.14,39.29,26.49,11.35,11.35,20.26,24.57,26.49,39.29,6.45,15.24,9.71,31.43,9.71,48.11s-3.27,32.87-9.71,48.11c-6.23,14.72-15.14,27.94-26.49,39.29-11.35,11.35-24.57,20.26-39.29,26.49-15.24,6.45-31.43,9.71-48.11,9.71ZM147.06,19.22c-16.57,0-32.64,3.24-47.77,9.64-14.61,6.18-27.74,15.03-39.01,26.3-11.27,11.27-20.12,24.39-26.3,39.01-6.4,15.13-9.64,31.2-9.64,47.77s3.24,32.64,9.64,47.77c6.18,14.61,15.03,27.74,26.3,39.01,11.27,11.27,24.39,20.12,39.01,26.3,15.13,6.4,31.2,9.64,47.77,9.64s32.64-3.24,47.77-9.64c14.61-6.18,27.74-15.03,39.01-26.3,11.27-11.27,20.12-24.39,26.3-39.01,6.4-15.13,9.64-31.2,9.64-47.77s-3.24-32.64-9.64-47.77c-6.18-14.61-15.03-27.74-26.3-39.01-11.27-11.27-24.39-20.12-39.01-26.3-15.13-6.4-31.2-9.64-47.77-9.64ZM147.06,260.54c-16.01,0-31.55-3.14-46.17-9.32-14.12-5.97-26.81-14.53-37.7-25.42-10.2-10.2-18.37-22-24.27-35.06l-.17-.39.38-.19,37.22-18.5.18.43c3.84,8.98,9.33,17.07,16.31,24.05,14.48,14.48,33.73,22.46,54.21,22.46s39.73-7.97,54.21-22.46c7.32-7.32,12.98-15.83,16.83-25.29l.17-.42,38.19,17.39-.17.39c-5.97,14.08-14.51,26.73-25.37,37.59l-.31-.31.31.31c-10.89,10.89-23.58,19.45-37.7,25.42-14.62,6.18-30.15,9.32-46.17,9.32ZM39.9,190.76c5.84,12.81,13.89,24.39,23.91,34.42,10.81,10.81,23.4,19.3,37.42,25.23,14.51,6.14,29.93,9.25,45.83,9.25s31.31-3.11,45.83-9.25c14.02-5.93,26.61-14.42,37.42-25.23,10.68-10.68,19.1-23.1,25.01-36.92l-36.58-16.66c-3.89,9.41-9.56,17.87-16.85,25.16-14.65,14.65-34.12,22.71-54.83,22.71s-40.19-8.07-54.83-22.71c-6.95-6.95-12.44-14.99-16.32-23.9l-36.01,17.9ZM147.06,215.08c-19.54,0-37.91-7.61-51.72-21.42-13.82-13.82-21.42-32.18-21.42-51.72s7.61-37.91,21.42-51.72c13.82-13.82,32.18-21.42,51.72-21.42s37.91,7.61,51.72,21.42c13.82,13.82,21.42,32.18,21.42,51.72s-7.61,37.91-21.42,51.72l-.31-.31.31.31c-13.82,13.82-32.18,21.42-51.72,21.42ZM147.06,69.66c-19.3,0-37.45,7.52-51.1,21.17-13.65,13.65-21.17,31.8-21.17,51.1s7.52,37.45,21.17,51.1,31.8,21.17,51.1,21.17,37.45-7.52,51.1-21.17c13.65-13.65,21.17-31.8,21.17-51.1s-7.52-37.45-21.17-51.1c-13.65-13.65-31.8-21.17-51.1-21.17ZM37.24,186.84l-.18-.44c-5.72-14.12-8.62-29.09-8.62-44.47,0-3.1.12-6.25.36-9.34l.04-.52,41.55,10.07v.34c.06,8.69,1.55,17.18,4.43,25.25l.13.37-37.71,18.74ZM29.65,133.17c-.21,2.91-.32,5.85-.32,8.76,0,15.11,2.82,29.81,8.38,43.7l36.16-17.97c-2.78-7.94-4.24-16.29-4.34-24.82l-39.88-9.66ZM257.89,184.28l-38.28-17.44.13-.38c2.65-7.87,3.99-16.13,3.99-24.53,0-.12,0-.23,0-.35v-.6s41.46-9.94,41.46-9.94l.04.51c.3,3.43.45,6.92.45,10.39,0,14.45-2.56,28.55-7.61,41.91l-.17.44ZM220.69,166.37l36.71,16.72c4.91-13.13,7.39-26.97,7.39-41.15,0-3.27-.13-6.57-.4-9.81l-39.79,9.54c0,.09,0,.18,0,.26,0,8.37-1.32,16.59-3.91,24.44ZM70.48,138.24l-41.26-10,.05-.39c1.3-11.04,4.16-21.84,8.5-32.09l.41.17-.41-.17c5.97-14.12,14.53-26.81,25.42-37.7,10.89-10.89,23.58-19.45,37.7-25.42,14.62-6.18,30.15-9.32,46.17-9.32s31.55,3.14,46.17,9.32c14.12,5.97,26.81,14.53,37.7,25.42s19.45,23.58,25.42,37.7c4.2,9.94,7.02,20.38,8.37,31.06l.05.39-41.2,9.88-.04-.52c-1.26-18.4-9.17-35.75-22.27-48.85-14.48-14.48-33.73-22.46-54.21-22.46s-39.73,7.97-54.21,22.46c-13.39,13.39-21.32,31.14-22.34,49.99l-.03.53ZM30.19,127.57l39.47,9.57c1.15-18.87,9.15-36.62,22.56-50.04,14.65-14.65,34.12-22.71,54.83-22.71s40.19,8.07,54.83,22.71c13.12,13.12,21.1,30.47,22.49,48.89l39.42-9.45c-1.36-10.46-4.14-20.69-8.26-30.43-5.93-14.02-14.42-26.61-25.23-37.42s-23.4-19.3-37.42-25.23c-14.51-6.14-29.93-9.25-45.83-9.25s-31.31,3.11-45.83,9.25c-14.02,5.93-26.61,14.42-37.42,25.23-10.81,10.81-19.3,23.4-25.23,37.42-4.25,10.06-7.08,20.64-8.39,31.47Z"/></svg>